<svg width="151" height="28" viewBox="0 0 151 28" fill="none" xmlns="http://www.w3.org/2000/svg">
<path d="M24.9469 9.67245L22.0499 12.5938C22.25 13.3507 22.3524 14.1302 22.3546 14.9132C22.354 16.9467 21.6918 18.9245 20.4685 20.5468C19.2452 22.1691 17.5275 23.3474 15.5758 23.903L15.2225 23.9959C13.7732 24.3537 12.2593 24.3573 10.8083 24.0064C9.35726 23.6555 8.01159 22.9603 6.88454 21.9794C5.75748 20.9985 4.88203 19.7606 4.33187 18.3698C3.78171 16.9791 3.57294 15.4762 3.72314 13.9877C3.87334 12.4992 4.3781 11.0687 5.19495 9.81651C6.0118 8.56433 7.11683 7.52716 8.41701 6.79231C9.7172 6.05745 11.1745 5.64642 12.6662 5.5938C14.158 5.54118 15.6405 5.84852 16.989 6.48994L19.7358 3.73679C17.2668 2.25234 14.3768 1.6292 11.5171 1.96468C8.65741 2.30017 5.98908 3.57539 3.92879 5.59122C1.86849 7.60704 0.532229 10.25 0.128669 13.1073C-0.274892 15.9646 0.27697 18.8754 1.69808 21.3852C3.11918 23.895 5.32953 25.8624 7.98393 26.9803C10.6383 28.0981 13.5874 28.3035 16.3705 27.5642C19.1536 26.825 21.6142 25.1828 23.3679 22.8941C25.1216 20.6053 26.0697 17.799 26.0642 14.9132C26.0621 13.1071 25.6814 11.3216 24.9469 9.67245Z" fill="#3E86FB"/>
<path d="M30.9801 0C21.0349 4.52367 13.342 14.8502 13.342 14.8502L10.4361 9.56079L6.72656 13.2789L11.5843 18.9489C11.5843 18.9489 12.2468 19.7634 13.6379 21.3613C21.9535 4.34219 30.9801 0 30.9801 0Z" fill="#2CDC28"/>
<path d="M34.5156 14.9261C34.5156 11.1637 37.4789 8.08301 41.555 8.08301C45.6311 8.08301 48.5458 11.1239 48.5458 14.9261C48.5458 18.7282 45.587 21.7691 41.5153 21.7691C37.4435 21.7691 34.5156 18.7238 34.5156 14.9261ZM45.5119 14.9261C45.5308 14.3894 45.4422 13.8545 45.2514 13.3527C45.0606 12.851 44.7714 12.3926 44.4009 12.0048C44.0304 11.617 43.5861 11.3074 43.0943 11.0946C42.6024 10.8817 42.073 10.7697 41.5373 10.7653C39.1968 10.7653 37.5628 12.62 37.5628 14.9261C37.5444 15.4645 37.6343 16.0012 37.827 16.5042C38.0197 17.0072 38.3114 17.4662 38.6847 17.8539C39.0579 18.2416 39.5051 18.5502 39.9998 18.7612C40.4944 18.9723 41.0263 19.0815 41.5638 19.0823C43.8911 19.0823 45.5119 17.2321 45.5119 14.9261Z" fill="#210E4A"/>
<path d="M52.1564 21.5428L51.9488 23.9241H49.5332V19.0818H50.6284C51.4763 17.267 51.6088 14.7175 51.6088 12.2786V11.3933H59.8714V19.0818H61.2493L60.9137 23.9241H58.498V21.5428H52.1564ZM57.0142 19.0818V13.8676H54.2894V14.0933C54.2894 15.8107 54.1569 17.5901 53.5343 19.0818H57.0142Z" fill="#210E4A"/>
<path d="M62.1348 16.4923C62.1348 13.5842 64.4709 11.2206 67.6241 11.2206C70.7772 11.2206 73.0736 13.5444 73.0736 16.4923C73.0736 19.4402 70.733 21.7684 67.5843 21.7684C64.4356 21.7684 62.1348 19.4446 62.1348 16.4923ZM70.2428 16.4923C70.257 16.133 70.1992 15.7745 70.0729 15.438C69.9465 15.1015 69.7542 14.7937 69.5072 14.533C69.2602 14.2722 68.9635 14.0637 68.6348 13.9197C68.3061 13.7758 67.9519 13.6993 67.5931 13.6949C65.9503 13.6949 64.9699 14.9608 64.9699 16.4923C64.9558 16.8516 65.0135 17.2101 65.1399 17.5466C65.2663 17.8831 65.4586 18.1909 65.7056 18.4516C65.9526 18.7124 66.2492 18.9209 66.578 19.0649C66.9067 19.2088 67.2609 19.2853 67.6196 19.2897C69.2625 19.2897 70.2428 18.0238 70.2428 16.4923Z" fill="#210E4A"/>
<path d="M74.6768 15.7182C74.6768 12.6774 75.1184 9.44176 78.9207 8.74241L84.3172 7.74207L84.7589 10.0083L79.2166 11.106C77.3485 11.4823 76.8407 12.5225 76.7656 13.4874C77.141 12.8279 78.3687 11.7877 80.4399 11.7877C81.074 11.79 81.7015 11.918 82.2861 12.1643C82.8707 12.4106 83.401 12.7704 83.8463 13.223C84.2917 13.6755 84.6433 14.2118 84.881 14.8011C85.1187 15.3904 85.2378 16.021 85.2314 16.6566C85.2288 17.3448 85.0886 18.0254 84.819 18.6583C84.5494 19.2912 84.1559 19.8635 83.6619 20.3414C83.1678 20.8192 82.5832 21.1929 81.9425 21.4404C81.3019 21.6879 80.6182 21.8042 79.932 21.7823C76.5448 21.769 74.6768 19.6134 74.6768 15.7182ZM82.4315 16.6832C82.4469 16.3451 82.3948 16.0074 82.2782 15.6898C82.1615 15.3722 81.9828 15.0812 81.7524 14.8338C81.5221 14.5864 81.2447 14.3877 80.9366 14.2492C80.6286 14.1107 80.296 14.0353 79.9585 14.0274C78.5056 14.0274 77.5252 15.2004 77.5252 16.6832C77.5128 17.0181 77.5673 17.3521 77.6856 17.6656C77.8039 17.9792 77.9835 18.2658 78.214 18.5087C78.4444 18.7516 78.7209 18.9459 79.0273 19.0801C79.3338 19.2143 79.6639 19.2858 79.9982 19.2903C81.4688 19.2903 82.4315 18.1483 82.4315 16.6832Z" fill="#210E4A"/>
<path d="M87.1094 11.4064H89.9755V12.8627C90.3246 12.3437 90.7985 11.9213 91.3534 11.6343C91.9083 11.3473 92.5264 11.205 93.1507 11.2205C95.5045 11.2205 97.7523 13.0707 97.7523 16.4922C97.7523 19.9137 95.5443 21.7285 93.1507 21.7285C92.5441 21.7404 91.9432 21.6102 91.3958 21.3481C90.8483 21.0861 90.3695 20.6995 89.9975 20.2192V24.5658H87.1315L87.1094 11.4064ZM94.8642 16.4568C94.8642 14.7748 93.7292 13.6594 92.3911 13.6594C91.053 13.6594 89.9401 14.7748 89.9401 16.4922C89.9401 18.2096 91.053 19.2896 92.3911 19.2896C93.7292 19.2896 94.8642 18.1963 94.8642 16.4568Z" fill="#210E4A"/>
<path d="M109.049 21.5431H106.275V15.6428L102.332 21.5431H99.6377V11.4069H102.424V17.3248L106.368 11.4069H109.049V21.5431Z" fill="#210E4A"/>
<path d="M111.441 11.4069H114.347L117.081 15.6605L119.854 11.4069H122.76V21.5431H119.854V15.4525L117.046 19.6132L114.272 15.4923V21.5431H111.441V11.4069Z" fill="#210E4A"/>
<path d="M125.309 19.5553H127.044V21.5427H125.309V19.5553Z" fill="#210E4A"/>
<path d="M129.91 11.77H131.363V13.722C132.154 12.549 133.306 11.5487 135.099 11.5487C137.435 11.5487 139.754 13.3989 139.754 16.6522C139.754 19.9055 137.453 21.7513 135.104 21.7513C134.356 21.7498 133.621 21.5581 132.968 21.1943C132.314 20.8304 131.764 20.3063 131.367 19.6709V24.5664H129.915L129.91 11.77ZM138.266 16.6389C138.266 14.3328 136.68 12.8589 134.834 12.8589C134.352 12.8737 133.878 12.9841 133.439 13.1836C133 13.3832 132.605 13.668 132.277 14.0215C131.948 14.3751 131.693 14.7904 131.525 15.2435C131.358 15.6965 131.282 16.1783 131.301 16.6611C131.282 17.1426 131.359 17.623 131.527 18.0746C131.695 18.5261 131.951 18.9397 132.279 19.2914C132.608 19.643 133.003 19.9258 133.442 20.1231C133.88 20.3205 134.354 20.4286 134.834 20.4411C136.72 20.4455 138.266 19.0336 138.266 16.6434V16.6389Z" fill="#210E4A"/>
<path d="M141.286 24.1316L141.776 22.9763C142.245 23.2283 142.772 23.3519 143.304 23.3348C144.188 23.3348 144.717 22.8922 145.305 21.5024L140.889 11.7645H142.492L146.025 19.9089L149.156 11.7645H150.701L146.608 21.8565C145.782 23.8793 144.841 24.6185 143.366 24.6185C142.644 24.6271 141.93 24.46 141.286 24.1316Z" fill="#210E4A"/>
</svg>
